<!--?xml version="1.0" standalone="no"?-->
              <svg id="sw-js-blob-svg" viewBox="0 0 100 100" xmlns="http://www.w3.org/2000/svg" version="1.1">
                    <defs> 
                        <linearGradient id="sw-gradient" x1="0" x2="1" y1="1" y2="0">
                            <stop id="stop1" stop-color="rgba(133.263, 133.263, 133.263, 1)" offset="0%"></stop>
                            <stop id="stop2" stop-color="rgba(60.195, 35.688, 217.504, 1)" offset="100%"></stop>
                        </linearGradient>
                    </defs>
                <path fill="url(#sw-gradient)" d="M20.2,-25.1C25.6,-23.9,28.9,-17.2,30.7,-10.3C32.6,-3.4,32.8,3.7,30.4,9.5C28,15.3,22.9,19.9,17.3,26.3C11.8,32.8,5.9,41.2,-0.5,41.8C-6.9,42.5,-13.7,35.4,-19,28.9C-24.3,22.3,-28,16.3,-27.6,10.6C-27.2,4.9,-22.6,-0.5,-19.8,-5.6C-17,-10.8,-16,-15.7,-13,-17.6C-10,-19.5,-5,-18.5,1.2,-20.2C7.4,-21.9,14.8,-26.3,20.2,-25.1Z" width="100%" height="100%" transform="translate(50 50)" stroke-width="0" style="transition: all 0.3s ease 0s;"></path>
              </svg>