<svg width="36" height="22" viewBox="0 0 36 22" fill="none" xmlns="http://www.w3.org/2000/svg">
<path d="M8 22C3.582 22 0 18.418 0 14C0 9.582 3.582 6 8 6C8.834 6 9.636 6.128 10.392 6.364C11.518 2.68 14.946 0 19 0C23.97 0 28 4.03 28 9C28 9.47 27.964 9.93 27.894 10.38C28.55 10.134 29.258 10 30 10C33.314 10 36 12.686 36 16C36 19.314 33.314 22 30 22H8Z" fill="url(#paint0_linear_2_553)"/>
<defs>
<linearGradient id="paint0_linear_2_553" x1="18" y1="0" x2="18" y2="22" gradientUnits="userSpaceOnUse">
<stop stop-color="#9FC7FF"/>
<stop offset="1" stop-color="#9BC1F5"/>
</linearGradient>
</defs>
</svg>
